<?xml version="1.0" standalone="no"?>
<!DOCTYPE svg PUBLIC "-//W3C//DTD SVG 20010904//EN"
 "http://www.w3.org/TR/2001/REC-SVG-20010904/DTD/svg10.dtd">
<svg version="1.0" xmlns="http://www.w3.org/2000/svg"
 width="400.000000pt" height="400.000000pt" viewBox="0 0 400.000000 400.000000"
 preserveAspectRatio="xMidYMid meet">

<g transform="translate(0.000000,400.000000) scale(0.100000,-0.100000)"
fill="#000000" stroke="none">
<path d="M1850 2611 c-47 -9 -60 -18 -60 -40 0 -10 -8 -26 -19 -35 -22 -20
-33 -89 -20 -123 9 -26 2 -76 -10 -68 -4 2 -5 -9 -3 -26 4 -29 4 -29 -44 -30
-47 -1 -47 -2 -14 -8 20 -4 41 -11 48 -15 21 -13 -6 -36 -42 -37 -17 0 -25 -3
-18 -6 8 -3 12 -28 12 -74 l0 -69 50 0 c74 0 107 -21 136 -86 13 -30 26 -54
29 -54 3 0 5 153 5 340 0 187 -3 339 -7 339 -5 -1 -24 -4 -43 -8z"/>
<path d="M2415 2584 c-16 -8 -32 -20 -36 -26 -4 -7 -13 -7 -27 1 -33 17 -42
13 -42 -19 0 -25 -4 -30 -24 -30 -23 0 -86 -59 -86 -80 0 -5 -11 -12 -25 -16
-27 -7 -34 -24 -10 -24 8 0 15 -3 15 -7 0 -25 -71 -217 -85 -233 -23 -26 -56
-25 -89 1 -38 30 -43 17 -6 -15 17 -14 42 -26 54 -26 40 0 80 51 105 135 34
112 54 155 72 155 27 0 33 18 7 22 -22 3 -21 5 14 41 20 20 41 37 47 37 8 0
11 -62 11 -202 l0 -203 20 33 c12 19 24 47 27 63 3 16 15 36 27 44 18 13 20
23 18 84 -3 60 -1 71 20 96 19 21 33 28 66 29 39 1 42 3 42 28 0 18 -5 28 -15
28 -8 0 -15 7 -15 16 0 25 -31 84 -44 84 -6 0 -24 -7 -41 -16z"/>
<path d="M903 2433 c9 -2 23 -2 30 0 6 3 -1 5 -18 5 -16 0 -22 -2 -12 -5z"/>
<path d="M443 2423 c9 -2 23 -2 30 0 6 3 -1 5 -18 5 -16 0 -22 -2 -12 -5z"/>
<path d="M2051 2392 c-51 -46 -63 -90 -32 -121 15 -15 26 -18 43 -12 57 20 92
137 49 160 -15 9 -26 4 -60 -27z m56 -27 c-11 -69 -67 -113 -82 -65 -8 24 9
58 43 87 33 27 46 20 39 -22z"/>
<path d="M2860 2335 c0 -57 4 -95 10 -95 6 0 10 38 10 95 0 57 -4 95 -10 95
-6 0 -10 -38 -10 -95z"/>
<path d="M395 2400 c-10 -11 -16 -22 -14 -24 2 -2 12 7 22 20 22 29 17 32 -8
4z"/>
<path d="M500 2416 c0 -2 8 -10 18 -17 15 -13 16 -12 3 4 -13 16 -21 21 -21
13z"/>
<path d="M2436 2398 c-22 -31 -21 -110 2 -136 28 -34 65 -37 98 -9 16 14 26
29 21 33 -4 4 -16 -2 -27 -14 -42 -45 -90 -12 -90 60 0 39 27 78 54 78 16 0
46 -26 46 -41 0 -5 5 -9 10 -9 16 0 11 26 -8 43 -28 25 -87 22 -106 -5z"/>
<path d="M2600 2410 c0 -5 5 -10 10 -10 6 0 10 5 10 10 0 6 -4 10 -10 10 -5 0
-10 -4 -10 -10z"/>
<path d="M2790 2410 c0 -5 5 -10 10 -10 6 0 10 5 10 10 0 6 -4 10 -10 10 -5 0
-10 -4 -10 -10z"/>
<path d="M2989 2399 c-16 -31 3 -66 40 -74 44 -9 64 -31 51 -56 -14 -25 -55
-24 -74 2 -8 12 -20 19 -26 17 -8 -2 -5 -12 8 -28 39 -48 132 -22 118 33 -4
17 -20 30 -56 45 -53 22 -64 44 -30 62 25 13 60 4 60 -16 0 -8 7 -14 15 -14
20 0 19 13 -3 33 -27 25 -89 22 -103 -4z"/>
<path d="M3435 2410 c3 -5 10 -10 16 -10 5 0 9 5 9 10 0 6 -7 10 -16 10 -8 0
-12 -4 -9 -10z"/>
<path d="M3650 2395 c0 -7 -8 -19 -17 -24 -17 -10 -17 -10 0 -11 14 0 17 -10
17 -59 0 -45 4 -60 16 -65 9 -4 20 -3 23 0 3 4 0 9 -6 11 -8 3 -13 24 -13 58
0 33 5 55 13 58 10 4 10 6 0 6 -7 1 -13 10 -13 21 0 11 -4 20 -10 20 -5 0 -10
-7 -10 -15z"/>
<path d="M437 2383 c-3 -5 8 -8 23 -8 15 0 26 3 23 8 -2 4 -13 7 -23 7 -10 0
-21 -3 -23 -7z"/>
<path d="M702 2303 c3 -73 4 -78 26 -79 18 -1 19 -1 2 3 -18 4 -20 12 -20 75
0 65 1 70 20 65 11 -3 20 -1 20 4 0 5 -11 9 -25 9 -26 0 -26 0 -23 -77z"/>
<path d="M918 2373 c6 -2 12 -11 12 -18 0 -8 4 -16 9 -19 4 -3 6 6 3 19 -2 15
-11 25 -21 24 -10 0 -11 -2 -3 -6z"/>
<path d="M1086 2368 c-12 -37 -14 -67 -8 -103 6 -34 11 -40 32 -40 23 0 25 4
26 50 l1 50 -4 -47 c-3 -40 -7 -48 -24 -48 -17 0 -19 7 -19 69 0 64 2 70 23
74 l22 4 -23 2 c-12 0 -24 -5 -26 -11z"/>
<path d="M1324 2366 c-3 -7 -4 -42 -2 -77 3 -60 4 -64 28 -66 22 -1 22 -1 3 4
-21 4 -23 10 -23 73 0 63 2 69 23 73 l22 4 -23 2 c-12 0 -25 -5 -28 -13z"/>
<path d="M1690 2376 c0 -2 7 -7 16 -10 8 -3 12 -2 9 4 -6 10 -25 14 -25 6z"/>
<path d="M3170 2367 c-46 -23 -44 -100 3 -127 24 -13 28 -13 54 6 39 29 43 75
9 109 -29 29 -32 29 -66 12z m62 -32 c23 -51 -20 -106 -57 -75 -18 15 -20 71
-3 88 20 20 48 14 60 -13z"/>
<path d="M3330 2373 c-25 -9 -40 -35 -40 -70 0 -34 29 -73 54 -73 20 0 62 37
53 47 -5 4 -13 0 -18 -10 -22 -38 -69 -13 -69 38 0 51 33 71 65 39 9 -9 19
-13 23 -9 4 4 -4 15 -17 26 -24 20 -27 21 -51 12z"/>
<path d="M3515 2356 c-34 -34 -31 -81 7 -109 23 -17 31 -19 53 -9 14 6 25 17
25 24 0 9 -3 9 -12 0 -17 -17 -44 -15 -62 4 -26 26 -18 34 34 34 28 0 50 4 50
10 0 15 -23 60 -31 60 -4 0 -14 3 -23 6 -9 3 -26 -5 -41 -20z m63 -18 c3 -15
-4 -18 -33 -18 -33 0 -35 2 -25 21 14 24 53 22 58 -3z"/>
<path d="M1170 2356 c0 -8 -6 -16 -12 -19 -7 -3 -4 -5 8 -4 15 1 20 6 16 19
-5 22 -12 24 -12 4z"/>
<path d="M1291 2353 c7 -12 15 -20 18 -17 3 2 -3 12 -13 22 -17 16 -18 16 -5
-5z"/>
<path d="M2600 2305 c0 -37 4 -65 10 -65 6 0 10 28 10 65 0 37 -4 65 -10 65
-6 0 -10 -28 -10 -65z"/>
<path d="M2653 2358 c2 -7 13 -37 23 -65 10 -29 23 -53 29 -53 6 0 19 24 29
53 10 28 21 58 23 65 3 6 1 12 -5 12 -5 0 -15 -15 -22 -32 -6 -18 -15 -42 -19
-53 -6 -16 -11 -10 -25 33 -10 28 -22 52 -28 52 -6 0 -8 -6 -5 -12z"/>
<path d="M2790 2305 c0 -37 4 -65 10 -65 6 0 10 28 10 65 0 37 -4 65 -10 65
-6 0 -10 -28 -10 -65z"/>
<path d="M3440 2305 c0 -37 4 -65 10 -65 6 0 10 28 10 65 0 37 -4 65 -10 65
-6 0 -10 -28 -10 -65z"/>
<path d="M3735 2304 c25 -67 23 -96 -7 -107 -7 -2 -9 -8 -5 -13 17 -17 40 14
68 91 32 86 33 95 20 95 -5 0 -15 -17 -21 -37 -18 -57 -26 -59 -40 -9 -7 26
-19 46 -26 46 -11 0 -8 -16 11 -66z"/>
<path d="M372 2325 c0 -16 2 -22 5 -12 2 9 2 23 0 30 -3 6 -5 -1 -5 -18z"/>
<path d="M595 2329 c-4 -6 -5 -12 -2 -15 2 -3 7 2 10 11 7 17 1 20 -8 4z"/>
<path d="M1515 2329 c-4 -6 -5 -12 -2 -15 2 -3 7 2 10 11 7 17 1 20 -8 4z"/>
<path d="M1549 2328 c7 -10 23 -17 35 -17 20 1 20 2 1 6 -11 3 -27 10 -35 17
-13 10 -13 9 -1 -6z"/>
<path d="M530 2285 c0 -8 2 -15 4 -15 2 0 6 7 10 15 3 8 1 15 -4 15 -6 0 -10
-7 -10 -15z"/>
<path d="M1015 2280 c22 -5 44 -4 50 1 5 5 -11 9 -40 8 l-50 -1 40 -8z"/>
<path d="M1221 2285 c8 -7 78 -9 85 -2 4 4 -14 7 -41 7 -27 0 -46 -2 -44 -5z"/>
<path d="M1510 2281 c0 -6 4 -13 10 -16 6 -3 7 1 4 9 -7 18 -14 21 -14 7z"/>
<path d="M1549 2273 c-12 -16 -12 -17 1 -7 8 7 24 14 35 17 19 4 19 5 -1 6
-12 0 -28 -7 -35 -16z"/>
<path d="M438 2268 c5 -5 16 -8 23 -6 8 3 3 7 -10 11 -17 4 -21 3 -13 -5z"/>
<path d="M1678 2263 c7 -3 16 -2 19 1 4 3 -2 6 -13 5 -11 0 -14 -3 -6 -6z"/>
<path d="M390 2256 c0 -2 8 -10 18 -17 15 -13 16 -12 3 4 -13 16 -21 21 -21
13z"/>
<path d="M509 2243 c-13 -16 -12 -17 4 -4 9 7 17 15 17 17 0 8 -8 3 -21 -13z"/>
<path d="M659 2243 c-13 -16 -12 -17 4 -4 9 7 17 15 17 17 0 8 -8 3 -21 -13z"/>
<path d="M3835 2250 c-3 -5 1 -10 9 -10 9 0 16 5 16 10 0 6 -4 10 -9 10 -6 0
-13 -4 -16 -10z"/>
<path d="M443 2223 c9 -2 23 -2 30 0 6 3 -1 5 -18 5 -16 0 -22 -2 -12 -5z"/>
<path d="M608 2223 c6 -2 18 -2 25 0 6 3 1 5 -13 5 -14 0 -19 -2 -12 -5z"/>
<path d="M798 2223 c6 -2 18 -2 25 0 6 3 1 5 -13 5 -14 0 -19 -2 -12 -5z"/>
<path d="M878 2223 c6 -2 18 -2 25 0 6 3 1 5 -13 5 -14 0 -19 -2 -12 -5z"/>
<path d="M998 2223 c6 -2 18 -2 25 0 6 3 1 5 -13 5 -14 0 -19 -2 -12 -5z"/>
<path d="M1238 2223 c6 -2 18 -2 25 0 6 3 1 5 -13 5 -14 0 -19 -2 -12 -5z"/>
<path d="M1418 2223 c6 -2 18 -2 25 0 6 3 1 5 -13 5 -14 0 -19 -2 -12 -5z"/>
<path d="M1523 2223 c9 -2 23 -2 30 0 6 3 -1 5 -18 5 -16 0 -22 -2 -12 -5z"/>
</g>
</svg>
